<?xml version="1.0" encoding="utf-8"?>
<!-- Generator: Adobe Illustrator 24.0.2, SVG Export Plug-In . SVG Version: 6.00 Build 0)  -->
<svg version="1.1" xmlns="http://www.w3.org/2000/svg" xmlns:xlink="http://www.w3.org/1999/xlink" x="0px" y="0px"
	 viewBox="0 0 210 297" style="enable-background:new 0 0 210 297;" xml:space="preserve">
<style type="text/css">
	.st0{fill:url(#SVGID_1_);}
	.st1{opacity:0.46;}
	.st2{fill:#D4A928;}
	.st3{fill:#997A2C;}
	.st4{fill:#C7A026;}
	.st5{fill:#FFFFFF;stroke:#FFFFFF;stroke-miterlimit:10;}
	.st6{fill:#FFFFFF;}
	.st7{fill:#202020;}
	.st8{fill:#010202;}
	.st9{fill:#1D71B8;}
	.st10{stroke:#000000;stroke-width:0.25;stroke-miterlimit:10;}
	.st11{stroke:#000000;stroke-width:0.1301;stroke-miterlimit:10;}
	.st12{fill:#FFFFFF;stroke:#FFFFFF;stroke-width:0.1267;stroke-miterlimit:10;}
	.st13{fill:url(#SVGID_2_);}
	.st14{fill:url(#SVGID_3_);}
	.st15{fill:url(#SVGID_4_);}
	.st16{fill:url(#SVGID_5_);}
	.st17{fill:url(#SVGID_6_);}
</style>
<g id="Calque_2">
</g>
<g id="Calque_1">
	<g>
		<linearGradient id="SVGID_1_" gradientUnits="userSpaceOnUse" x1="78.327" y1="97.009" x2="136.113" y2="122.2069">
			<stop  offset="0.0795" style="stop-color:#113443"/>
			<stop  offset="0.1555" style="stop-color:#113443"/>
			<stop  offset="0.3609" style="stop-color:#2D6866"/>
			<stop  offset="0.3986" style="stop-color:#35746D"/>
			<stop  offset="0.4977" style="stop-color:#4B957E"/>
			<stop  offset="0.6006" style="stop-color:#69BC8F"/>
			<stop  offset="0.6981" style="stop-color:#8FC17D"/>
			<stop  offset="0.7051" style="stop-color:#91C17B"/>
			<stop  offset="0.7935" style="stop-color:#AFC566"/>
			<stop  offset="0.882" style="stop-color:#CBC94C"/>
			<stop  offset="0.9929" style="stop-color:#EBCC17"/>
		</linearGradient>
		<path class="st0" d="M133.94,107.99c2.04,9.57,0.09,19.92-5.27,28.09c-2.08,3.17-4.69,6.11-5.8,9.73
			c-1.98,6.47,1.26,13.52-0.03,20.16c-0.69,3.56-2.72,6.84-5.6,9.05c-2.36,3.1-11.67,3.07-11.67,3.07
			c-3.62,0.25-7.31-0.86-10.19-3.07c-2.88-2.21-4.91-5.49-5.6-9.05c-1.29-6.64,1.95-13.69-0.03-20.16c-1.11-3.63-3.72-6.56-5.8-9.73
			c-5.37-8.18-7.31-18.53-5.27-28.09l-2.92-5.79c-1.23-2.49-1.42-5.48-0.52-8.11c0.9-2.63,2.89-4.87,5.39-6.09l1.13-1.3
			c-3.4-4.09-7.77-7.26-11.41-11.14c-3.63-3.88-6.62-8.89-6.21-14.2c0.15-1.95,0.81-3.94,2.2-5.32c2.12-2.11,5.59-2.4,8.38-1.33
			s5.01,3.27,6.84,5.64c3.06,3.95,5.31,8.52,6.57,13.35l0.45-0.55c2.34-5.16,7.17-9.12,12.69-10.41h10.06
			c5.52,1.29,10.35,5.25,12.69,10.41l0.45,0.55c1.26-4.83,3.51-9.41,6.57-13.35c1.83-2.36,4.05-4.56,6.84-5.64
			c2.79-1.07,6.26-0.78,8.38,1.33c1.39,1.38,2.05,3.37,2.2,5.32c0.41,5.3-2.58,10.31-6.21,14.2c-3.63,3.88-8.01,7.05-11.41,11.14
			l1.13,1.3c2.5,1.21,4.49,3.46,5.39,6.09c0.9,2.63,0.71,5.62-0.52,8.11L133.94,107.99z"/>
	</g>
	<g>
		<path d="M114.67,142.96c0.08-0.65,0.19-1.32,0.07-1.97c-0.12-0.65-0.54-1.29-1.18-1.45c-0.94-0.24-1.84,0.68-2.03,1.63
			s0.07,1.93,0.14,2.9c0.22,3.03-1.65,6.11-4.45,7.3h-1.81c-2.8-1.19-4.67-4.27-4.45-7.3c0.07-0.97,0.33-1.95,0.14-2.9
			c-0.2-0.95-1.09-1.87-2.03-1.63c-0.64,0.16-1.06,0.81-1.18,1.45c-0.12,0.65-0.01,1.31,0.07,1.97c0.51,4.31-0.73,8.76-3.22,12.3
			c-1.15,1.62-3.14,2.65-4.2,4.16c-1.32,1.88-0.83,5.6-0.23,7.64c1.21,4.12,4.56,7.44,8.53,9.08c3.97,1.64,8.49,1.69,12.65,0.61
			c2.37-0.61,4.71-1.62,6.45-3.35c2.16-2.14,3.11-5.11,3.6-8.05c0.39-2.35,1.09-4.89-0.6-6.77
			C116.87,154.05,113.9,149.37,114.67,142.96z"/>
		<g>
			<path d="M115.67,142.96c0.23-1.85-0.16-4.75-2.72-4.42c-2.43,0.32-2.57,3.03-2.35,4.91c0.28,2.44-0.58,4.88-2.62,6.35
				c-0.8,0.58-0.8,0.57-1.79,0.57c-0.91,0-1.35-0.32-2.18-1.11c-1.89-1.8-2.15-3.99-1.91-6.44c0.19-1.88-0.61-4.62-3.04-4.28
				c-2.53,0.35-2.19,3.22-2.04,5.05c0.21,2.63-0.23,5.29-1.24,7.73c-0.49,1.19-1.13,2.4-1.91,3.43c-0.79,1.04-1.88,1.79-2.83,2.65
				c-1.6,1.44-2.29,3.09-2.34,5.24c-0.1,4.37,1.79,8.59,5.06,11.48c3.76,3.32,8.82,4.67,13.77,4.29c4.81-0.37,10.03-2.06,12.72-6.34
				c1.45-2.3,1.98-4.94,2.44-7.58c0.45-2.62,0.5-4.82-1.31-6.92C117.71,153.32,115.05,148.76,115.67,142.96c0.14-1.28-1.86-1.27-2,0
				c-0.44,4.07,0.59,7.98,2.77,11.43c1.11,1.77,2.49,3.27,3.78,4.89c1.38,1.73,0.63,4.22,0.27,6.18c-0.38,2.07-0.98,4.16-2.19,5.92
				c-1.33,1.92-3.35,3.17-5.53,3.92c-4.54,1.57-9.89,1.71-14.29-0.42c-3.64-1.76-6.53-4.96-7.44-8.94c-0.38-1.68-0.7-3.89,0.05-5.52
				c0.8-1.75,2.92-2.71,4.12-4.17c2.71-3.31,4.06-8.02,3.83-12.25c-0.04-0.73-0.64-2.86,0.12-3.32c1.29-0.78,0.89,2.41,0.83,2.97
				c-0.19,1.89,0.26,3.81,1.29,5.42c0.9,1.4,2.54,3.13,4.28,3.3c1.67,0.16,2.92-0.34,4.19-1.45c1.62-1.41,2.65-3.45,2.88-5.58
				c0.13-1.22-0.29-2.42-0.16-3.63c0.05-0.49,0.6-1.83,1.18-0.85c0.32,0.54,0.08,1.51,0.01,2.09
				C113.51,144.23,115.51,144.22,115.67,142.96z"/>
		</g>
	</g>
	<g>
		<path class="st6" d="M100.14,167.72c-0.29-2.15-0.5-4.43-1.77-6.19c-0.36-0.5-0.82-0.95-1.39-1.19c-0.57-0.23-1.27-0.21-1.76,0.16
			c-0.84,0.65-0.73,1.93-0.53,2.97c0.45,2.32,0.91,4.69,2.04,6.76s3.08,3.84,5.42,4.16C102.16,174.39,100.44,169.87,100.14,167.72z"
			/>
		<g>
			<path class="st6" d="M101.11,167.46c-0.28-2.1-0.51-4.31-1.68-6.14c-1.05-1.64-3.44-3.1-5.11-1.33c-1.39,1.48-0.57,3.96-0.2,5.68
				c0.46,2.11,1.1,4.27,2.37,6.05c1.3,1.82,3.15,3.3,5.41,3.64c0.67,0.1,1.53-0.44,1.23-1.23
				C102.31,171.99,101.44,169.73,101.11,167.46c-0.08-0.54-0.75-0.82-1.23-0.7c-0.58,0.15-0.78,0.7-0.7,1.23
				c0.33,2.28,1.2,4.53,2.02,6.67c0.41-0.41,0.82-0.82,1.23-1.23c-4.42-0.68-5.83-5.5-6.58-9.26c-0.15-0.75-0.51-1.81-0.22-2.56
				c0.35-0.9,1.39-0.15,1.78,0.31c1.37,1.62,1.5,4.06,1.77,6.07c0.07,0.54,0.76,0.82,1.23,0.7
				C100.99,168.53,101.18,167.99,101.11,167.46z"/>
		</g>
	</g>
	<g>
		<path d="M73.94,76.14c0.99,0.86,2.1,1.62,3.36,1.98c1.26,0.35,2.7,0.25,3.76-0.5c1.51-1.06,1.95-3.09,1.98-4.93
			c0.09-5.51-2.64-11-7.09-14.25c-1.14-0.83-2.41-1.53-3.79-1.77C64.11,55.98,68.53,71.44,73.94,76.14z"/>
		<g>
			<path d="M73.23,76.85c2.07,1.76,4.8,3.2,7.53,2.05c2.35-0.99,3.16-3.55,3.27-5.91c0.23-5.19-2.07-10.48-5.84-14
				c-2.55-2.38-7.54-5.28-10.28-1.56c-1.83,2.48-1.21,6.22-0.48,8.97C68.42,70.15,70.27,74.22,73.23,76.85
				c0.96,0.85,2.38-0.56,1.41-1.41c-2.05-1.82-3.45-4.4-4.43-6.92c-0.96-2.48-1.81-5.4-1.38-8.08c0.43-2.7,2.6-3.36,4.97-2.16
				c3.96,2.01,6.76,6.19,7.79,10.43c0.52,2.13,0.87,4.91-0.15,6.94c-1.47,2.95-4.93,1.38-6.79-0.2
				C73.67,74.61,72.25,76.01,73.23,76.85z"/>
		</g>
	</g>
	<g>
		<path d="M100.56,65.44c-2.82,1.16-5.47,2.75-7.83,4.69l-0.22,0.29c2.74-1.32,5.49-2.64,8.23-3.97L100.56,65.44z"/>
		<g>
			<path d="M100.49,65.2c-1.61,0.67-3.17,1.46-4.65,2.38c-0.74,0.46-1.46,0.96-2.16,1.48c-0.5,0.38-1.01,0.73-1.39,1.23
				c-0.17,0.22,0.14,0.44,0.34,0.34c2.74-1.32,5.49-2.64,8.23-3.97c0.11-0.05,0.13-0.18,0.11-0.28c-0.06-0.34-0.12-0.67-0.18-1.01
				c-0.06-0.32-0.54-0.18-0.48,0.13c0.06,0.34,0.12,0.67,0.18,1.01c0.04-0.09,0.08-0.19,0.11-0.28c-2.74,1.32-5.49,2.64-8.23,3.97
				c0.11,0.11,0.23,0.23,0.34,0.34c0.38-0.5,0.94-0.85,1.45-1.22c0.66-0.49,1.35-0.95,2.05-1.38c1.4-0.87,2.88-1.62,4.4-2.25
				C100.92,65.56,100.79,65.08,100.49,65.2z"/>
		</g>
	</g>
	<g>
		<path d="M101.21,73.4c-3.04,1.53-5.96,3.31-8.7,5.33c-1.57,1.16-3.1,2.4-4.35,3.89c-1.25,1.5-2.23,3.27-2.56,5.19
			c3.39-4.72,7.95-8.58,13.16-11.16c0.68-0.33,1.38-0.66,1.91-1.19s0.87-1.33,0.64-2.05"/>
		<g>
			<path d="M101.08,73.19c-3.43,1.73-6.72,3.76-9.75,6.13c-2.77,2.16-5.3,4.87-5.97,8.43c-0.05,0.28,0.29,0.42,0.46,0.19
				c2.33-3.22,5.19-6.05,8.45-8.33c1.54-1.08,3.17-2.01,4.85-2.85c1.33-0.66,2.86-1.69,2.44-3.41c-0.08-0.31-0.56-0.18-0.48,0.13
				c0.51,2.1-2.64,3.02-4.02,3.79c-1.57,0.88-3.06,1.87-4.48,2.97c-2.74,2.12-5.15,4.64-7.18,7.44c0.15,0.06,0.3,0.13,0.46,0.19
				c0.7-3.66,3.38-6.35,6.24-8.52c2.9-2.2,6.01-4.11,9.26-5.75C101.62,73.47,101.37,73.04,101.08,73.19L101.08,73.19z"/>
		</g>
	</g>
	<g>
		<path d="M83.65,89.55c-2.72,1.49-4.93,3.91-6.16,6.77c-0.47,1.1-0.79,2.4-0.23,3.45c0.8-3.32,2.85-6.31,5.65-8.25
			c0.36-0.25,0.74-0.49,0.98-0.86s0.28-0.91-0.02-1.22"/>
		<g>
			<path d="M83.52,89.33c-1.94,1.08-3.61,2.59-4.88,4.4c-1.15,1.65-2.59,4.14-1.59,6.15c0.1,0.19,0.41,0.14,0.46-0.06
				c0.56-2.29,1.7-4.42,3.3-6.16c0.8-0.86,1.7-1.54,2.64-2.24c0.69-0.52,1.25-1.41,0.6-2.19c-0.2-0.25-0.56,0.11-0.35,0.35
				c0.52,0.62-0.32,1.28-0.77,1.59c-0.39,0.27-0.77,0.55-1.14,0.86c-0.8,0.66-1.52,1.42-2.15,2.24c-1.24,1.6-2.12,3.44-2.61,5.4
				c0.15-0.02,0.3-0.04,0.46-0.06c-0.53-1.08-0.17-2.31,0.29-3.34c0.4-0.91,0.9-1.77,1.49-2.56c1.2-1.63,2.75-2.98,4.52-3.96
				C84.06,89.61,83.8,89.17,83.52,89.33L83.52,89.33z"/>
		</g>
	</g>
	<g>
		<path d="M89.69,85.65c-2.24,3.48-4.11,7.34-5.55,11.47c-0.32,0.92-0.63,1.87-0.71,2.87s0.08,2.08,0.59,2.84
			C84.42,96.62,89.69,85.65,89.69,85.65z"/>
		<g>
			<path d="M89.44,85.51c-1.79,2.81-3.31,5.77-4.57,8.86c-1.03,2.52-2.72,5.99-1.1,8.61c0.15,0.25,0.51,0.13,0.53-0.14
				c0.27-3.72,1.64-7.4,2.98-10.84c0.81-2.09,1.68-4.17,2.65-6.19C90.09,85.47,89.6,85.18,89.44,85.51
				c-0.99,2.07-1.88,4.19-2.71,6.33c-1.36,3.5-2.73,7.22-3,10.99c0.18-0.05,0.35-0.1,0.53-0.14c-0.88-1.42-0.6-3.15-0.13-4.66
				c0.46-1.47,1.03-2.91,1.63-4.32c1.17-2.75,2.57-5.4,4.18-7.92C90.13,85.49,89.64,85.2,89.44,85.51z"/>
		</g>
	</g>
	<g>
		<path d="M78.13,115.77c2.02,0.94,4.04,1.88,6.07,2.82c-2.15-1.86-4.29-3.73-6.44-5.59c0.12,1,0.23,2,0.35,3"/>
		<g>
			<path d="M78,115.98c2.02,0.94,4.04,1.88,6.07,2.82c0.24,0.11,0.53-0.19,0.3-0.39c-2.15-1.86-4.29-3.73-6.44-5.59
				c-0.14-0.13-0.45-0.06-0.43,0.18c0.12,1,0.23,2,0.35,3c0.04,0.32,0.54,0.32,0.5,0c-0.12-1-0.23-2-0.35-3
				c-0.14,0.06-0.28,0.12-0.43,0.18c2.15,1.86,4.29,3.73,6.44,5.59c0.1-0.13,0.2-0.26,0.3-0.39c-2.02-0.94-4.04-1.88-6.07-2.82
				C77.96,115.42,77.71,115.85,78,115.98L78,115.98z"/>
		</g>
	</g>
	<g>
		<path d="M77.64,119.11c3.27,1.79,6.29,3.98,8.94,6.51c-2.07-0.38-4.07-1.08-5.89-2.07c-1.79-0.98-3.53-2.43-3.77-4.34
			L77.64,119.11z"/>
		<g>
			<path d="M77.5,119.33c3.22,1.77,6.21,3.93,8.88,6.47c0.08-0.14,0.17-0.29,0.25-0.43c-2.1-0.39-4.16-1.1-6.02-2.15
				c-1.57-0.89-3.18-2.18-3.45-4.08c-0.08,0.11-0.17,0.22-0.25,0.33c0.24-0.03,0.48-0.06,0.72-0.09c0.33-0.04,0.33-0.56,0-0.52
				c-0.24,0.03-0.48,0.06-0.72,0.09c-0.18,0.02-0.28,0.15-0.25,0.33c0.28,1.92,1.85,3.29,3.43,4.24c1.96,1.17,4.17,1.94,6.41,2.36
				c0.24,0.04,0.45-0.24,0.25-0.43c-2.7-2.56-5.73-4.76-8.99-6.55C77.47,118.72,77.21,119.17,77.5,119.33z"/>
		</g>
	</g>
	<g>
		<path d="M79.29,125.56c3.87,3.45,8.6,6.04,13.69,7.49c-2.8-0.57-5.62-1.14-8.26-2.19c-2.64-1.05-5.13-2.6-6.79-4.81L79.29,125.56z
			"/>
		<g>
			<path d="M79.11,125.74c3.98,3.52,8.7,6.08,13.8,7.55c0.05-0.17,0.09-0.33,0.14-0.5c-5.38-1.09-11.39-2.34-14.94-6.94
				c-0.04,0.14-0.08,0.29-0.11,0.43c0.45-0.16,0.91-0.32,1.36-0.48c0.31-0.11,0.18-0.61-0.14-0.5c-0.45,0.16-0.91,0.32-1.36,0.48
				c-0.2,0.07-0.23,0.27-0.11,0.43c3.6,4.66,9.71,5.96,15.17,7.07c0.32,0.07,0.46-0.4,0.14-0.5c-5.01-1.44-9.67-3.96-13.58-7.42
				C79.23,125.16,78.86,125.52,79.11,125.74z"/>
		</g>
	</g>
	<g>
		<path d="M95.94,86.42c-1.54,1.12-2.61,3.47-3.15,5.99c-0.55,2.52-0.64,5.22-0.69,7.87c-0.13,6.18-0.1,12.41,0.57,18.51
			c0.67,6.1,2,12.09,4.28,17.15c-2.44-9.5-4.22-19.62-3.94-29.85c0.19-6.83,1.3-13.59,3.24-19.72"/>
		<g>
			<path d="M95.71,86.2c-2.97,2.32-3.55,6.83-3.79,10.33c-0.32,4.65-0.28,9.36-0.13,14.02c0.27,8.67,1.33,17.56,4.88,25.55
				c0.15,0.33,0.66,0.09,0.57-0.24c-4.15-16.23-5.78-33.18-0.7-49.4c0.12-0.38-0.48-0.55-0.6-0.17c-5.12,16.33-3.48,33.4,0.7,49.73
				c0.19-0.08,0.38-0.16,0.57-0.24c-3.44-7.74-4.48-16.36-4.78-24.75c-0.15-4.36-0.15-8.74,0.04-13.1
				c0.16-3.71,0.48-8.79,3.68-11.29C96.47,86.4,96.03,85.96,95.71,86.2L95.71,86.2z"/>
		</g>
	</g>
	<g>
		<path d="M87.14,138.14c1.11,0.05,2.2,0.31,3.23,0.76c0.35,0.16,0.76,0.5,0.61,0.87c-0.11,0.28-0.46,0.32-0.74,0.33
			c-1.07,0.02-2.15,0.04-3.22,0.06c1.35,1.01,3.05,1.44,4.69,1.25c0.92-0.11,1.97-0.56,2.17-1.52c0.14-0.67-0.2-1.37-0.7-1.8
			c-0.5-0.43-1.13-0.64-1.75-0.82c-1.74-0.51-3.53-0.84-5.33-0.98c-0.28-0.02-0.57-0.04-0.81,0.1c-0.24,0.14-0.39,0.5-0.24,0.74
			c0.08,0.12,0.21,0.18,0.33,0.24C85.99,137.68,87.14,138.14,87.14,138.14z"/>
		<g>
			<path d="M87.14,138.38c0.64,0.04,1.27,0.13,1.89,0.3c0.28,0.08,0.56,0.17,0.83,0.27c0.23,0.09,0.77,0.24,0.86,0.52
				c-0.03,0.11-0.05,0.21-0.08,0.32c-0.1,0.04-0.2,0.06-0.3,0.07c-0.12,0.01-0.24,0.01-0.36,0.01c-0.31,0.01-0.62,0.01-0.93,0.02
				c-0.68,0.01-1.36,0.03-2.03,0.04c-0.26,0.01-0.31,0.31-0.12,0.45c1.37,1.01,3.11,1.48,4.81,1.29c1.23-0.14,2.65-0.92,2.42-2.36
				c-0.28-1.8-2.4-2.23-3.87-2.59c-0.96-0.23-1.92-0.4-2.9-0.53c-0.67-0.09-1.82-0.42-2.37,0.14c-0.2,0.21-0.31,0.53-0.21,0.81
				c0.11,0.31,0.42,0.43,0.7,0.56c0.52,0.24,1.06,0.46,1.59,0.67c0.29,0.12,0.41-0.35,0.13-0.47c-0.3-0.12-0.6-0.25-0.91-0.38
				c-0.22-0.1-0.45-0.19-0.67-0.29c-0.09-0.04-0.22-0.08-0.29-0.15c-0.22-0.22,0-0.5,0.26-0.55c0.34-0.07,0.74,0.02,1.08,0.05
				c0.4,0.04,0.8,0.09,1.2,0.15c0.73,0.11,1.45,0.25,2.16,0.42c1.23,0.29,3.13,0.59,3.55,2c0.42,1.4-1.17,1.98-2.26,2.04
				c-1.51,0.09-2.99-0.36-4.2-1.25c-0.04,0.15-0.08,0.3-0.12,0.45c0.99-0.02,1.98-0.04,2.97-0.06c0.52-0.01,1.32-0.08,1.27-0.8
				c-0.05-0.67-0.89-0.94-1.41-1.13c-0.87-0.31-1.78-0.48-2.7-0.54C86.83,137.88,86.83,138.36,87.14,138.38z"/>
		</g>
	</g>
	<g>
		<path d="M94.82,142.55c-1.44,1.22-3.14,2.15-4.95,2.7c-0.27-0.59-0.54-1.18-0.81-1.77C89.06,143.48,93.23,143.42,94.82,142.55z"/>
		<g>
			<path d="M94.65,142.38c-1.42,1.19-3.07,2.09-4.84,2.63c0.09,0.04,0.19,0.08,0.28,0.11c-0.27-0.59-0.54-1.18-0.81-1.77
				c-0.07,0.13-0.14,0.25-0.22,0.38c0.78-0.01,1.57-0.07,2.35-0.15c1.18-0.12,2.48-0.25,3.54-0.82c0.28-0.15,0.03-0.58-0.25-0.43
				c-1.02,0.54-2.3,0.65-3.42,0.76c-0.74,0.07-1.48,0.12-2.22,0.13c-0.2,0-0.29,0.21-0.22,0.38c0.27,0.59,0.54,1.18,0.81,1.77
				c0.04,0.1,0.18,0.14,0.28,0.11c1.86-0.57,3.57-1.51,5.06-2.76C95.25,142.52,94.89,142.17,94.65,142.38z"/>
		</g>
	</g>
	<g>
		<path d="M103.56,82.53c-5.82,15.84-6.71,35.87-2.37,52.82c-1.27-7.78-2.26-15.76-2.04-23.78c0.28-10.13,2.46-19.86,4.61-29.42
			L103.56,82.53z"/>
		<g>
			<path d="M103.26,82.45c-6.08,16.71-6.73,35.78-2.37,52.98c0.1,0.4,0.67,0.22,0.6-0.17c-1.46-8.94-2.47-17.99-1.86-27.05
				c0.59-8.79,2.51-17.4,4.44-25.97c0.08-0.34-0.39-0.56-0.57-0.24c-0.07,0.13-0.14,0.25-0.21,0.38c-0.2,0.35,0.34,0.67,0.54,0.32
				c0.07-0.13,0.14-0.25,0.21-0.38c-0.19-0.08-0.38-0.16-0.57-0.24c-1.94,8.62-3.87,17.3-4.46,26.14
				c-0.61,9.12,0.42,18.22,1.89,27.22c0.2-0.06,0.4-0.11,0.6-0.17c-4.34-17.1-3.68-36.04,2.37-52.65
				C104,82.23,103.4,82.07,103.26,82.45z"/>
		</g>
	</g>
	<circle class="st10" cx="80.63" cy="111.11" r="5.93"/>
	<g>
		<path class="st6" d="M112.48,167.72c0.29-2.15,0.5-4.43,1.77-6.19c0.36-0.5,0.82-0.95,1.39-1.19c0.57-0.23,1.27-0.21,1.76,0.16
			c0.84,0.65,0.73,1.93,0.53,2.97c-0.45,2.32-0.91,4.69-2.04,6.76c-1.14,2.07-3.08,3.84-5.42,4.16
			C110.46,174.39,112.19,169.87,112.48,167.72z"/>
		<g>
			<path class="st6" d="M113.44,167.99c0.27-2.02,0.4-4.44,1.77-6.07c0.38-0.45,1.37-1.19,1.77-0.35c0.34,0.72-0.07,1.89-0.21,2.61
				c-0.75,3.75-2.16,8.58-6.58,9.26c0.41,0.41,0.82,0.82,1.23,1.23C112.24,172.52,113.11,170.26,113.44,167.99
				c0.08-0.54-0.13-1.07-0.7-1.23c-0.47-0.13-1.15,0.16-1.23,0.7c-0.33,2.28-1.2,4.53-2.02,6.67c-0.3,0.79,0.56,1.33,1.23,1.23
				c4.36-0.67,6.64-4.98,7.59-8.86c0.25-1.03,0.48-2.09,0.65-3.14c0.15-0.93,0.21-1.95-0.25-2.81c-1.09-2.04-3.71-1.49-4.98,0.03
				c-1.61,1.94-1.9,4.47-2.22,6.87c-0.07,0.54,0.13,1.07,0.7,1.23C112.68,168.82,113.37,168.52,113.44,167.99z"/>
		</g>
	</g>
	<g>
		<path d="M107.3,51.31c1.92,3.02,0.79,6.7,0.42,10.26c0.49-4.38,3.92-8.27,8.2-9.32c-2.68,2.91-4.38,9.67-4.38,9.67
			c-0.26,4.13-0.52,8.26-0.78,12.39c-0.07,1.13-0.16,2.33-0.79,3.27s-6.66,0.94-7.29,0c-0.63-0.94-0.72-2.14-0.79-3.27
			c-0.26-4.13-0.52-8.26-0.78-12.39c0,0-1.7-6.76-4.38-9.67c4.28,1.05,7.7,4.95,8.2,9.32C104.53,58.01,105.39,54.33,107.3,51.31"/>
		<g>
			<path d="M106.44,51.82c1.75,2.96,0.64,6.56,0.28,9.75c-0.15,1.28,1.84,1.25,2,0c0.52-4,3.6-7.34,7.46-8.36
				c-0.32-0.56-0.65-1.11-0.97-1.67c-2.26,2.56-3.47,6.04-4.41,9.27c-0.47,1.64-0.41,3.38-0.52,5.07c-0.19,2.93-0.32,5.87-0.56,8.8
				c-0.06,0.71-0.09,1.98-0.72,2.31c-0.54,0.29-1.43,0.25-2.02,0.27c-1,0.04-3.32,0.29-3.73-0.75c-0.45-1.15-0.39-2.49-0.47-3.7
				c-0.1-1.57-0.2-3.14-0.3-4.71c-0.14-2.16,0.01-4.6-0.49-6.71c-0.81-3.41-2.23-7.23-4.57-9.87c-0.32,0.56-0.65,1.11-0.97,1.67
				c3.86,1.02,6.94,4.36,7.46,8.36c0.16,1.24,2.12,1.3,2,0c-0.32-3.46,0.44-6.8,2.26-9.75c0.68-1.1-1.05-2.11-1.73-1.01
				c-1.99,3.23-2.88,6.98-2.53,10.76c0.67,0,1.33,0,2,0c-0.64-4.89-4.13-9.02-8.93-10.29c-1-0.27-1.62,0.94-0.97,1.67
				c1.37,1.55,2.22,3.57,2.94,5.49c0.43,1.17,0.93,2.42,1.16,3.65c0.19,1.05,0.14,2.23,0.21,3.29c0.1,1.65,0.21,3.3,0.31,4.96
				c0.1,1.57,0.15,3.16,0.31,4.73c0.1,1.06,0.27,2.39,1.03,3.22c0.85,0.92,2.53,0.94,3.68,0.99c1.39,0.05,3.24,0.11,4.5-0.59
				c1.8-1.01,1.59-4.13,1.7-5.86c0.2-3.14,0.4-6.28,0.6-9.42c0.1-1.57,0.52-2.92,1.05-4.42c0.74-2.11,1.64-4.35,3.14-6.04
				c0.65-0.73,0.03-1.94-0.97-1.67c-4.8,1.27-8.29,5.4-8.93,10.29c0.67,0,1.33,0,2,0c0.41-3.64,1.43-7.4-0.55-10.76
				C107.51,49.7,105.78,50.7,106.44,51.82L106.44,51.82z"/>
		</g>
	</g>
	<g>
		<path d="M138.68,76.14c-0.99,0.86-2.1,1.62-3.36,1.98c-1.26,0.35-2.7,0.25-3.76-0.5c-1.51-1.06-1.95-3.09-1.98-4.93
			c-0.09-5.51,2.64-11,7.09-14.25c1.14-0.83,2.41-1.53,3.79-1.77C148.51,55.98,144.09,71.44,138.68,76.14z"/>
		<g>
			<path d="M137.98,75.44c-1.63,1.38-4.62,3.01-6.37,0.87c-1.27-1.55-1.14-4.06-0.9-5.93c0.57-4.38,3-8.6,6.61-11.19
				c1.95-1.39,5.32-2.67,6.28,0.42c0.77,2.49,0.01,5.42-0.79,7.8C141.82,70.33,140.31,73.36,137.98,75.44
				c-0.96,0.86,0.45,2.27,1.41,1.41c2.64-2.34,4.33-5.82,5.41-9.13c0.95-2.9,1.76-6.65,0.37-9.54c-0.59-1.23-1.68-2.14-3.02-2.42
				c-2.29-0.48-4.48,0.66-6.26,2c-4.17,3.15-6.82,8.07-7.26,13.27c-0.22,2.59,0.06,5.85,2.42,7.45c2.79,1.88,6.08,0.29,8.33-1.63
				C140.37,76.01,138.95,74.61,137.98,75.44z"/>
		</g>
	</g>
	<g>
		<path d="M112.07,65.44c2.82,1.16,5.47,2.75,7.83,4.69l0.22,0.29c-2.74-1.32-5.49-2.64-8.23-3.97L112.07,65.44z"/>
		<g>
			<path d="M112,65.68c1.53,0.63,3,1.39,4.4,2.25c0.68,0.42,1.34,0.87,1.99,1.34c0.52,0.38,1.11,0.75,1.51,1.27
				c0.11-0.11,0.23-0.23,0.34-0.34c-2.74-1.32-5.49-2.64-8.23-3.97c0.04,0.09,0.08,0.19,0.11,0.28c0.06-0.34,0.12-0.67,0.18-1.01
				c0.06-0.31-0.42-0.45-0.48-0.13c-0.06,0.34-0.12,0.67-0.18,1.01c-0.02,0.1,0.01,0.23,0.11,0.28c2.74,1.32,5.49,2.64,8.23,3.97
				c0.2,0.1,0.51-0.12,0.34-0.34c-0.37-0.48-0.85-0.82-1.33-1.19c-0.72-0.54-1.46-1.05-2.22-1.52c-1.48-0.92-3.03-1.71-4.65-2.38
				C111.84,65.08,111.71,65.56,112,65.68z"/>
		</g>
	</g>
	<g>
		<path d="M111.42,73.4c3.04,1.53,5.96,3.31,8.7,5.33c1.57,1.16,3.1,2.4,4.35,3.89c1.25,1.5,2.23,3.27,2.56,5.19
			c-3.39-4.72-7.95-8.58-13.16-11.16c-0.68-0.33-1.38-0.66-1.91-1.19s-0.87-1.33-0.64-2.05"/>
		<g>
			<path d="M111.29,73.62c3.25,1.64,6.36,3.55,9.26,5.75c2.86,2.17,5.54,4.86,6.24,8.52c0.15-0.06,0.3-0.13,0.46-0.19
				c-2.03-2.81-4.44-5.32-7.18-7.44c-1.38-1.07-2.84-2.05-4.37-2.91c-1.39-0.79-4.65-1.73-4.13-3.86c0.08-0.31-0.41-0.45-0.48-0.13
				c-0.41,1.66,1.02,2.7,2.33,3.35c1.72,0.86,3.39,1.81,4.96,2.91c3.26,2.28,6.12,5.11,8.45,8.33c0.17,0.23,0.51,0.09,0.46-0.19
				c-0.68-3.56-3.2-6.27-5.97-8.43c-3.03-2.36-6.32-4.4-9.75-6.13C111.26,73.04,111,73.47,111.29,73.62L111.29,73.62z"/>
		</g>
	</g>
	<g>
		<path d="M128.97,89.55c2.72,1.49,4.93,3.91,6.16,6.77c0.47,1.1,0.79,2.4,0.23,3.45c-0.8-3.32-2.85-6.31-5.65-8.25
			c-0.36-0.25-0.74-0.49-0.98-0.86c-0.24-0.37-0.28-0.91,0.02-1.22"/>
		<g>
			<path d="M128.85,89.76c1.77,0.98,3.32,2.33,4.52,3.96c0.57,0.78,1.06,1.61,1.46,2.49c0.47,1.06,0.87,2.31,0.32,3.42
				c0.15,0.02,0.3,0.04,0.46,0.06c-0.48-1.96-1.37-3.8-2.61-5.4c-0.62-0.8-1.32-1.54-2.09-2.19c-0.39-0.32-0.79-0.62-1.2-0.91
				c-0.45-0.32-1.29-0.97-0.77-1.59c0.2-0.25-0.15-0.6-0.35-0.35c-0.64,0.77-0.1,1.65,0.58,2.17c0.94,0.71,1.86,1.38,2.67,2.26
				c1.6,1.73,2.74,3.86,3.3,6.16c0.05,0.2,0.36,0.25,0.46,0.06c1-2.01-0.44-4.51-1.59-6.15c-1.27-1.82-2.94-3.33-4.88-4.4
				C128.82,89.17,128.57,89.61,128.85,89.76L128.85,89.76z"/>
		</g>
	</g>
	<g>
		<path d="M122.94,85.65c2.24,3.48,4.11,7.34,5.55,11.47c0.32,0.92,0.63,1.87,0.71,2.87c0.08,1-0.08,2.08-0.59,2.84
			C128.2,96.62,122.94,85.65,122.94,85.65z"/>
		<g>
			<path d="M122.69,85.8c1.61,2.52,3.01,5.17,4.18,7.92c0.6,1.41,1.17,2.85,1.63,4.32c0.47,1.51,0.74,3.24-0.13,4.66
				c0.18,0.05,0.35,0.1,0.53,0.14c-0.27-3.78-1.64-7.49-3-10.99c-0.83-2.14-1.72-4.26-2.71-6.33
				C123.02,85.18,122.53,85.47,122.69,85.8c0.97,2.02,1.84,4.1,2.65,6.19c1.34,3.45,2.71,7.12,2.98,10.84
				c0.02,0.28,0.38,0.39,0.53,0.14c1.62-2.62-0.07-6.08-1.1-8.61c-1.26-3.08-2.78-6.05-4.57-8.86
				C122.98,85.2,122.49,85.49,122.69,85.8z"/>
		</g>
	</g>
	<g>
		<path d="M134.5,115.77c-2.02,0.94-4.04,1.88-6.07,2.82c2.15-1.86,4.29-3.73,6.44-5.59c-0.12,1-0.23,2-0.35,3"/>
		<g>
			<path d="M134.37,115.55c-2.02,0.94-4.04,1.88-6.07,2.82c0.1,0.13,0.2,0.26,0.3,0.39c2.15-1.86,4.29-3.73,6.44-5.59
				c-0.14-0.06-0.28-0.12-0.43-0.18c-0.12,1-0.23,2-0.35,3c-0.04,0.32,0.46,0.32,0.5,0c0.12-1,0.23-2,0.35-3
				c0.03-0.23-0.28-0.3-0.43-0.18c-2.15,1.86-4.29,3.73-6.44,5.59c-0.23,0.2,0.06,0.5,0.3,0.39c2.02-0.94,4.04-1.88,6.07-2.82
				C134.92,115.85,134.66,115.42,134.37,115.55L134.37,115.55z"/>
		</g>
	</g>
	<g>
		<path d="M134.7,119.11c-3.17,1.79-6.09,3.98-8.65,6.51c2-0.38,3.94-1.08,5.7-2.07c1.74-0.98,3.42-2.43,3.65-4.34L134.7,119.11z"/>
		<g>
			<path d="M134.57,118.89c-3.17,1.8-6.1,4-8.71,6.55c-0.19,0.19,0.01,0.47,0.25,0.43c2.19-0.42,4.35-1.21,6.26-2.39
				c1.53-0.95,3.01-2.33,3.27-4.2c0.03-0.18-0.07-0.3-0.25-0.32c-0.23-0.03-0.46-0.06-0.7-0.09c-0.33-0.04-0.32,0.47,0,0.51
				c0.23,0.03,0.46,0.06,0.7,0.09c-0.08-0.11-0.16-0.22-0.25-0.32c-0.26,1.85-1.76,3.15-3.28,4.05c-1.81,1.07-3.82,1.79-5.89,2.19
				c0.08,0.14,0.17,0.28,0.25,0.43c2.57-2.52,5.47-4.69,8.6-6.47C135.12,119.17,134.86,118.73,134.57,118.89z"/>
		</g>
	</g>
	<g>
		<path d="M132.95,125.56c-3.76,3.45-8.36,6.04-13.31,7.49c2.72-0.57,5.46-1.14,8.03-2.19c2.57-1.05,4.98-2.6,6.61-4.81
			L132.95,125.56z"/>
		<g>
			<path d="M132.77,125.38c-3.78,3.44-8.3,5.97-13.2,7.42c-0.31,0.09-0.18,0.55,0.13,0.49c5.39-1.13,11.3-2.47,14.79-7.12
				c0.11-0.14-0.01-0.32-0.15-0.37c-0.44-0.16-0.88-0.32-1.32-0.48c-0.31-0.11-0.44,0.38-0.13,0.49c0.44,0.16,0.88,0.32,1.32,0.48
				c-0.05-0.12-0.1-0.25-0.15-0.37c-3.4,4.52-9.26,5.79-14.49,6.89c0.04,0.16,0.09,0.33,0.13,0.49c4.98-1.48,9.58-4.05,13.43-7.55
				C133.37,125.51,133.01,125.16,132.77,125.38z"/>
		</g>
	</g>
	<g>
		<path d="M116.69,86.42c1.54,1.12,2.61,3.47,3.15,5.99c0.55,2.52,0.64,5.22,0.69,7.87c0.13,6.18,0.1,12.41-0.57,18.51
			c-0.67,6.1-2,12.09-4.28,17.15c2.44-9.5,4.22-19.62,3.94-29.85c-0.19-6.83-1.3-13.59-3.24-19.72"/>
		<g>
			<path d="M116.47,86.64c3.2,2.5,3.52,7.58,3.68,11.29c0.19,4.36,0.19,8.74,0.04,13.1c-0.3,8.39-1.34,17.01-4.78,24.75
				c0.19,0.08,0.38,0.16,0.57,0.24c4.18-16.33,5.81-33.41,0.7-49.73c-0.12-0.38-0.72-0.22-0.6,0.17c5.08,16.23,3.46,33.17-0.7,49.4
				c-0.08,0.33,0.42,0.58,0.57,0.24c3.55-7.99,4.6-16.89,4.88-25.55c0.15-4.65,0.19-9.37-0.13-14.02c-0.24-3.5-0.82-8.01-3.79-10.33
				C116.6,85.96,116.15,86.4,116.47,86.64L116.47,86.64z"/>
		</g>
	</g>
	<g>
		<path d="M125.4,138.14c-1.09,0.05-2.18,0.31-3.19,0.76c-0.35,0.16-0.75,0.5-0.6,0.87c0.11,0.28,0.45,0.32,0.73,0.33
			c1.06,0.02,2.12,0.04,3.18,0.06c-1.33,1.01-3.02,1.44-4.63,1.25c-0.91-0.11-1.94-0.56-2.15-1.52c-0.14-0.67,0.2-1.37,0.69-1.8
			s1.12-0.64,1.73-0.82c1.72-0.51,3.49-0.84,5.27-0.98c0.27-0.02,0.56-0.04,0.8,0.1s0.39,0.5,0.23,0.74
			c-0.08,0.12-0.21,0.18-0.33,0.24C126.54,137.68,125.4,138.14,125.4,138.14z"/>
		<g>
			<path d="M125.4,137.9c-0.88,0.05-1.76,0.21-2.59,0.51c-0.53,0.19-1.41,0.47-1.47,1.15c-0.05,0.67,0.67,0.78,1.17,0.79
				c1,0.02,2.01,0.04,3.01,0.06c-0.04-0.15-0.08-0.3-0.12-0.45c-1.08,0.8-2.37,1.25-3.72,1.26c-1,0.01-2.57-0.25-2.71-1.49
				c-0.18-1.59,1.75-2.1,2.91-2.41c1.44-0.38,2.91-0.65,4.39-0.78c0.21-0.02,0.44-0.06,0.65-0.01c0.26,0.06,0.47,0.33,0.26,0.55
				c-0.16,0.16-0.53,0.26-0.73,0.35c-0.37,0.16-0.73,0.32-1.11,0.47c-0.28,0.12-0.16,0.58,0.13,0.46c0.44-0.18,0.89-0.37,1.32-0.56
				c0.49-0.22,1.16-0.47,0.94-1.14c-0.25-0.77-1.17-0.63-1.8-0.57c-0.97,0.1-1.93,0.25-2.88,0.45c-0.92,0.2-1.86,0.41-2.74,0.76
				c-0.7,0.28-1.32,0.72-1.65,1.42c-0.64,1.38,0.4,2.53,1.71,2.85c1.79,0.43,3.8-0.12,5.26-1.2c0.18-0.14,0.13-0.44-0.12-0.45
				c-0.64-0.01-1.28-0.03-1.93-0.04c-0.31-0.01-0.61-0.01-0.92-0.02c-0.23,0-1,0.08-0.81-0.4c0.17-0.45,1.19-0.66,1.6-0.77
				c0.63-0.18,1.28-0.29,1.94-0.32C125.71,138.36,125.71,137.88,125.4,137.9z"/>
		</g>
	</g>
	<g>
		<path d="M117.8,142.55c1.44,1.22,3.14,2.15,4.95,2.7c0.27-0.59,0.54-1.18,0.81-1.77C123.56,143.48,119.4,143.42,117.8,142.55z"/>
		<g>
			<path d="M117.62,142.73c1.49,1.25,3.2,2.19,5.06,2.76c0.1,0.03,0.24-0.02,0.28-0.11c0.27-0.59,0.54-1.18,0.81-1.77
				c0.08-0.17-0.01-0.37-0.22-0.38c-0.74-0.01-1.48-0.06-2.22-0.13c-1.13-0.11-2.41-0.22-3.42-0.76c-0.28-0.15-0.54,0.28-0.25,0.43
				c1.06,0.56,2.36,0.7,3.54,0.82c0.78,0.08,1.57,0.13,2.35,0.15c-0.07-0.13-0.14-0.25-0.22-0.38c-0.27,0.59-0.54,1.18-0.81,1.77
				c0.09-0.04,0.19-0.08,0.28-0.11c-1.77-0.55-3.42-1.44-4.84-2.63C117.73,142.17,117.38,142.52,117.62,142.73z"/>
		</g>
	</g>
	<g>
		<path d="M109.06,82.53c5.82,15.84,6.71,35.87,2.37,52.82c1.27-7.78,2.26-15.76,2.04-23.78c-0.28-10.13-2.46-19.86-4.61-29.42
			L109.06,82.53z"/>
		<g>
			<path d="M108.76,82.61c6.05,16.61,6.7,35.55,2.37,52.65c0.2,0.06,0.4,0.11,0.6,0.17c1.46-9,2.5-18.1,1.89-27.22
				c-0.59-8.84-2.52-17.51-4.46-26.14c-0.19,0.08-0.38,0.16-0.57,0.24c0.07,0.13,0.14,0.25,0.21,0.38c0.2,0.35,0.74,0.04,0.54-0.32
				c-0.07-0.13-0.14-0.25-0.21-0.38c-0.18-0.32-0.65-0.1-0.57,0.24c1.93,8.57,3.85,17.19,4.44,25.97
				c0.61,9.07-0.41,18.11-1.86,27.05c-0.06,0.39,0.5,0.56,0.6,0.17c4.36-17.2,3.72-36.27-2.37-52.98
				C109.22,82.07,108.62,82.23,108.76,82.61z"/>
		</g>
	</g>
	
		<ellipse transform="matrix(0.2885 -0.9575 0.9575 0.2885 -48.8595 157.2255)" class="st12" cx="81.36" cy="111.49" rx="2.5" ry="3.61"/>
	<g>
		<path d="M71.53,107.72c5.44-0.09,10.89,1.35,15.83,4.18c-2.61-4.67-6.78-7.93-11.28-8.8C76.09,103.09,72.96,106.07,71.53,107.72z"
			/>
		<g>
			<path d="M71.53,108.86c5.37-0.06,10.59,1.38,15.26,4.02c0.99,0.56,2.12-0.56,1.56-1.56c-2.21-3.89-5.58-7.15-9.81-8.72
				c-0.84-0.31-2.33-0.98-3.14-0.4c-0.33,0.24-0.61,0.57-0.9,0.85c-1.29,1.25-2.58,2.51-3.76,3.87c-0.96,1.1,0.64,2.72,1.61,1.61
				c1.42-1.63,2.99-3.14,4.55-4.63c-0.37,0.1-0.74,0.2-1.11,0.29c4.64,0.95,8.31,4.24,10.6,8.28c0.52-0.52,1.04-1.04,1.56-1.56
				c-5-2.83-10.64-4.4-16.41-4.33C70.07,106.6,70.07,108.87,71.53,108.86z"/>
		</g>
	</g>
	<polygon points="25.77,185.34 25.77,216.5 33.2,216.5 33.2,204.4 45.26,204.4 45.26,198.19 33.2,198.19 33.2,191.77 46.27,191.77 
		46.27,185.34 	"/>
	<rect x="55.95" y="185.34" width="7.57" height="31.15"/>
	<polygon points="71.79,185.34 71.79,191.77 80.59,191.77 80.59,216.5 81.04,216.5 88.21,185.34 	"/>
	<g>
		<linearGradient id="SVGID_2_" gradientUnits="userSpaceOnUse" x1="83.4027" y1="200.9199" x2="196.9621" y2="200.9199">
			<stop  offset="0.0795" style="stop-color:#113443"/>
			<stop  offset="0.1555" style="stop-color:#113443"/>
			<stop  offset="0.3609" style="stop-color:#2D6866"/>
			<stop  offset="0.3986" style="stop-color:#35746D"/>
			<stop  offset="0.4977" style="stop-color:#4B957E"/>
			<stop  offset="0.6006" style="stop-color:#69BC8F"/>
			<stop  offset="0.6981" style="stop-color:#8FC17D"/>
			<stop  offset="0.7051" style="stop-color:#91C17B"/>
			<stop  offset="0.7935" style="stop-color:#AFC566"/>
			<stop  offset="0.882" style="stop-color:#CBC94C"/>
			<stop  offset="0.9929" style="stop-color:#EBCC17"/>
		</linearGradient>
		<path class="st13" d="M99.28,191.77h-8.8v24.73H83.4l7.18-31.15h8.7V191.77z M129.29,216.5h-21.74v-31.15h20.94v6.34h-13.68v5.9
			h12.94v6.03h-12.94v6.47h14.48V216.5z M157.85,216.5l-6.82-11l-6.56,11h-8.97l10.91-16.46l-10.03-14.7h9.06l5.81,9.68l5.72-9.68
			h8.76l-9.86,14.7l11.27,16.46H157.85z M196.96,191.77h-8.8v24.73h-7.53v-24.73h-8.8v-6.42h25.12V191.77z"/>
		<linearGradient id="SVGID_3_" gradientUnits="userSpaceOnUse" x1="77.3265" y1="200.9199" x2="203.0383" y2="200.9199">
			<stop  offset="0.0795" style="stop-color:#113443"/>
			<stop  offset="0.1555" style="stop-color:#113443"/>
			<stop  offset="0.3609" style="stop-color:#2D6866"/>
			<stop  offset="0.3986" style="stop-color:#35746D"/>
			<stop  offset="0.4977" style="stop-color:#4B957E"/>
			<stop  offset="0.6006" style="stop-color:#69BC8F"/>
			<stop  offset="0.6981" style="stop-color:#8FC17D"/>
			<stop  offset="0.7051" style="stop-color:#91C17B"/>
			<stop  offset="0.7935" style="stop-color:#AFC566"/>
			<stop  offset="0.882" style="stop-color:#CBC94C"/>
			<stop  offset="0.9929" style="stop-color:#EBCC17"/>
		</linearGradient>
		<polygon class="st14" points="83.4,216.5 90.48,216.5 90.48,191.77 99.28,191.77 99.28,185.34 90.58,185.34 		"/>
		<linearGradient id="SVGID_4_" gradientUnits="userSpaceOnUse" x1="77.3265" y1="200.9199" x2="203.0383" y2="200.9199">
			<stop  offset="0.0795" style="stop-color:#113443"/>
			<stop  offset="0.1555" style="stop-color:#113443"/>
			<stop  offset="0.3609" style="stop-color:#2D6866"/>
			<stop  offset="0.3986" style="stop-color:#35746D"/>
			<stop  offset="0.4977" style="stop-color:#4B957E"/>
			<stop  offset="0.6006" style="stop-color:#69BC8F"/>
			<stop  offset="0.6981" style="stop-color:#8FC17D"/>
			<stop  offset="0.7051" style="stop-color:#91C17B"/>
			<stop  offset="0.7935" style="stop-color:#AFC566"/>
			<stop  offset="0.882" style="stop-color:#CBC94C"/>
			<stop  offset="0.9929" style="stop-color:#EBCC17"/>
		</linearGradient>
		<polygon class="st15" points="114.81,203.6 127.75,203.6 127.75,197.58 114.81,197.58 114.81,191.68 128.5,191.68 128.5,185.34 
			107.56,185.34 107.56,216.5 129.29,216.5 129.29,210.07 114.81,210.07 		"/>
		<linearGradient id="SVGID_5_" gradientUnits="userSpaceOnUse" x1="77.3265" y1="200.9199" x2="203.0383" y2="200.9199">
			<stop  offset="0.0795" style="stop-color:#113443"/>
			<stop  offset="0.1555" style="stop-color:#113443"/>
			<stop  offset="0.3609" style="stop-color:#2D6866"/>
			<stop  offset="0.3986" style="stop-color:#35746D"/>
			<stop  offset="0.4977" style="stop-color:#4B957E"/>
			<stop  offset="0.6006" style="stop-color:#69BC8F"/>
			<stop  offset="0.6981" style="stop-color:#8FC17D"/>
			<stop  offset="0.7051" style="stop-color:#91C17B"/>
			<stop  offset="0.7935" style="stop-color:#AFC566"/>
			<stop  offset="0.882" style="stop-color:#CBC94C"/>
			<stop  offset="0.9929" style="stop-color:#EBCC17"/>
		</linearGradient>
		<polygon class="st16" points="165.72,185.34 156.97,185.34 151.25,195.02 145.44,185.34 136.38,185.34 146.41,200.04 135.5,216.5 
			144.47,216.5 151.03,205.5 157.85,216.5 167.13,216.5 155.87,200.04 		"/>
		<linearGradient id="SVGID_6_" gradientUnits="userSpaceOnUse" x1="77.3265" y1="200.9199" x2="203.0383" y2="200.9199">
			<stop  offset="0.0795" style="stop-color:#113443"/>
			<stop  offset="0.1555" style="stop-color:#113443"/>
			<stop  offset="0.3609" style="stop-color:#2D6866"/>
			<stop  offset="0.3986" style="stop-color:#35746D"/>
			<stop  offset="0.4977" style="stop-color:#4B957E"/>
			<stop  offset="0.6006" style="stop-color:#69BC8F"/>
			<stop  offset="0.6981" style="stop-color:#8FC17D"/>
			<stop  offset="0.7051" style="stop-color:#91C17B"/>
			<stop  offset="0.7935" style="stop-color:#AFC566"/>
			<stop  offset="0.882" style="stop-color:#CBC94C"/>
			<stop  offset="0.9929" style="stop-color:#EBCC17"/>
		</linearGradient>
		<polygon class="st17" points="171.84,191.77 180.64,191.77 180.64,216.5 188.16,216.5 188.16,191.77 196.96,191.77 196.96,185.34 
			171.84,185.34 		"/>
	</g>
	<g>
		<circle class="st10" cx="132.01" cy="111.11" r="5.93"/>
		
			<ellipse transform="matrix(0.9575 -0.2885 0.2885 0.9575 -26.5835 42.6191)" class="st12" cx="131.29" cy="111.49" rx="3.61" ry="2.5"/>
		<g>
			<path d="M141.11,107.72c-5.44-0.09-10.89,1.35-15.83,4.18c2.61-4.67,6.78-7.93,11.28-8.8
				C136.56,103.09,139.69,106.07,141.11,107.72z"/>
			<g>
				<path d="M141.11,106.58c-5.76-0.07-11.4,1.5-16.41,4.33c0.52,0.52,1.04,1.04,1.56,1.56c2.29-4.04,5.96-7.33,10.6-8.28
					c-0.37-0.1-0.74-0.2-1.11-0.29c1.56,1.49,3.13,3,4.55,4.63c0.97,1.11,2.57-0.51,1.61-1.61c-1.18-1.35-2.48-2.61-3.76-3.87
					c-0.26-0.25-0.51-0.54-0.79-0.76c-0.86-0.69-2.33-0.03-3.25,0.31c-4.24,1.57-7.61,4.83-9.81,8.72
					c-0.56,0.99,0.56,2.12,1.56,1.56c4.67-2.64,9.89-4.08,15.26-4.02C142.58,108.87,142.58,106.6,141.11,106.58z"/>
			</g>
		</g>
	</g>
</g>
</svg>
